<svg xmlns="http://www.w3.org/2000/svg" xmlns:xlink="http://www.w3.org/1999/xlink" style="enable-background:new 0 2 98 98" id="Layer_1" width="512" height="512" x="0" y="0" version="1.1" viewBox="0 2 98 98" xml:space="preserve"><style type="text/css">.st0{fill:url(#SVGID_1_)}.st1{fill:url(#SVGID_2_)}</style><g><linearGradient id="SVGID_1_" x1="57.767" x2="57.767" y1="96" y2="6.323" gradientTransform="matrix(1 0 0 -1 0 104)" gradientUnits="userSpaceOnUse"><stop offset="0" style="stop-color:#00efd1"/><stop offset="1" style="stop-color:#00acea"/></linearGradient><path d="M33.3,45.9c-1.1-1.2-3-1.3-4.2-0.2s-1.3,3-0.2,4.2L44,66.3c0.6,0.6,1.3,1,2.1,1c0,0,0,0,0.1,0 c0.8,0,1.6-0.3,2.1-0.9l38.2-38.1c1.2-1.2,1.2-3.1,0-4.2s-3.1-1.2-4.2,0L46.3,60L33.3,45.9z" class="st0"/><linearGradient id="SVGID_2_" x1="49" x2="49" y1="96" y2="6.323" gradientTransform="matrix(1 0 0 -1 0 104)" gradientUnits="userSpaceOnUse"><stop offset="0" style="stop-color:#00efd1"/><stop offset="1" style="stop-color:#00acea"/></linearGradient><path d="M85.8,50c-1.7,0-3,1.3-3,3c0,18.6-15.2,33.8-33.8,33.8S15.2,71.6,15.2,53S30.4,19.2,49,19.2c1.7,0,3-1.3,3-3 s-1.3-3-3-3C27.1,13.2,9.2,31.1,9.2,53S27.1,92.8,49,92.8S88.8,74.9,88.8,53C88.8,51.3,87.5,50,85.8,50z" class="st1"/></g></svg>