<svg xmlns="http://www.w3.org/2000/svg" xmlns:xlink="http://www.w3.org/1999/xlink" style="enable-background:new 0 2 98 98" id="Layer_1" width="512" height="512" x="0" y="0" version="1.1" viewBox="0 2 98 98" xml:space="preserve"><style type="text/css">.st0{fill:url(#SVGID_1_)}.st1{fill:url(#SVGID_2_)}</style><g><linearGradient id="SVGID_1_" x1="49" x2="49" y1="11.667" y2="95.691" gradientUnits="userSpaceOnUse"><stop offset="0" style="stop-color:#00efd1"/><stop offset="1" style="stop-color:#00acea"/></linearGradient><path d="M49,58.2c-24.7,0-38.3,11.7-38.3,32.9c0,1.7,1.3,3,3,3h70.6c1.7,0,3-1.3,3-3C87.3,69.9,73.7,58.2,49,58.2z M16.8,88.1C18,72.2,28.8,64.2,49,64.2s31,8,32.2,23.9H16.8z" class="st0"/><linearGradient id="SVGID_2_" x1="49" x2="49" y1="11.667" y2="95.691" gradientUnits="userSpaceOnUse"><stop offset="0" style="stop-color:#00efd1"/><stop offset="1" style="stop-color:#00acea"/></linearGradient><path d="M49,53.8c11,0,19.9-9.7,19.9-21.6c0-11.6-8.6-20.3-19.9-20.3s-19.9,8.7-19.9,20.3C29.1,44.1,38,53.8,49,53.8z M49,17.9c7.9,0,13.9,6.1,13.9,14.3c0,8.6-6.2,15.6-13.9,15.6s-13.9-7-13.9-15.6C35.1,23.9,40.9,17.9,49,17.9z" class="st1"/></g></svg>